<svg xmlns="http://www.w3.org/2000/svg" viewBox="0 0 512 512" fill="none">
  <rect width="512" height="512" rx="108" fill="#5E5CE6"/>
  <rect x="128" y="88" width="256" height="336" rx="28" fill="#FBFBFD"/>
  <path stroke="#5E5CE6" stroke-width="20" stroke-linecap="round" d="M176 168h160M176 232h128M176 296h96"/>
  <path fill="#1D1D1F" d="M312 312l88 88-44 44-88-88 44-44z"/>
  <path fill="#5E5CE6" d="M328 296 360 264l44 44-32 32-44-44z"/>
  <path stroke="#1D1D1F" stroke-width="16" stroke-linecap="round" stroke-linejoin="round" d="m328 296 44 44M360 264l24-24a16 16 0 0 1 22.6 0l21.4 21.4a16 16 0 0 1 0 22.6l-24 24"/>
</svg>
